<?xml version="1.0" standalone="no"?>
<!DOCTYPE svg PUBLIC "-//W3C//DTD SVG 20010904//EN"
 "http://www.w3.org/TR/2001/REC-SVG-20010904/DTD/svg10.dtd">
<svg version="1.0" xmlns="http://www.w3.org/2000/svg"
 width="160.000000pt" height="220.000000pt" viewBox="0 0 160.000000 220.000000"
 preserveAspectRatio="xMidYMid meet">

<g transform="translate(0.000000,220.000000) scale(0.100000,-0.100000)"
fill="#000000" stroke="none">
<path d="M0 1100 l0 -1100 800 0 800 0 0 1100 0 1100 -800 0 -800 0 0 -1100z
m700 1069 c0 -5 5 -7 11 -3 19 11 66 7 91 -9 13 -8 55 -18 93 -22 39 -4 86
-14 105 -22 19 -8 73 -17 119 -19 103 -4 170 -33 163 -69 -3 -17 2 -24 21 -29
14 -3 33 -3 41 0 22 8 21 -22 0 -34 -20 -11 -10 -32 15 -32 10 0 28 -9 41 -20
21 -19 20 -25 -5 -20 -5 1 -1 -9 11 -22 11 -13 31 -40 43 -60 13 -21 26 -38
29 -38 4 0 20 -26 35 -58 16 -31 35 -68 41 -82 8 -15 10 -35 5 -50 l-7 -25 -1
26 c-1 15 -7 26 -15 26 -8 0 -12 -6 -9 -14 10 -26 -15 -12 -37 20 l-22 32 5
-27 4 -28 -38 22 c-29 16 -38 26 -33 40 3 10 1 26 -5 35 -9 16 -10 15 -9 -7 4
-69 -2 -95 -24 -105 -18 -8 -23 -18 -22 -48 1 -32 -1 -37 -17 -32 -15 5 -17 1
-12 -28 4 -29 2 -34 -13 -32 -41 4 -75 18 -84 34 -8 14 -9 13 -10 -6 0 -18 -6
-23 -26 -23 -22 0 -25 -2 -14 -15 7 -8 19 -15 26 -15 8 0 14 -4 14 -10 0 -5
-7 -7 -15 -4 -18 7 -20 -12 -3 -23 7 -4 25 -6 40 -4 17 1 28 -2 28 -9 0 -10 3
-10 14 -1 11 10 16 8 21 -8 3 -12 16 -26 27 -32 15 -8 19 -8 14 0 -4 6 0 11 8
11 9 0 16 -5 16 -10 0 -7 6 -7 19 0 11 5 28 10 38 10 12 0 7 -7 -17 -21 -45
-27 -79 -68 -80 -96 0 -33 -20 -28 -21 5 l-1 27 -10 -27 c-5 -16 -15 -28 -22
-28 -13 0 -46 -35 -46 -50 0 -16 -22 -23 -31 -9 -7 11 -9 10 -9 -3 0 -21 -30
-58 -45 -58 -6 0 -21 -13 -33 -30 -13 -17 -28 -27 -36 -24 -8 3 -17 1 -21 -5
-4 -7 3 -11 16 -11 l22 0 -24 -26 c-14 -15 -31 -23 -41 -21 -10 3 -18 0 -18
-8 0 -8 10 -11 28 -8 15 2 47 6 72 8 41 3 43 2 25 -10 -11 -8 -26 -19 -32 -25
-9 -7 -13 -7 -13 0 0 5 -4 10 -10 10 -5 0 -10 -9 -10 -20 0 -11 -7 -23 -16
-27 -8 -3 -13 -12 -10 -19 3 -7 0 -16 -6 -20 -7 -5 -8 -2 -3 5 5 9 2 12 -11 9
-14 -2 -19 -13 -20 -38 -1 -33 -34 -111 -34 -81 0 11 -4 9 -14 -5 -8 -10 -18
-15 -22 -11 -5 4 -2 13 6 18 11 8 8 9 -13 6 -15 -2 -30 -1 -32 3 -6 10 24 22
36 14 5 -3 9 -1 9 4 0 19 -28 20 -58 2 -18 -11 -34 -15 -37 -10 -4 6 -1 10 5
10 13 0 49 39 50 53 0 5 -10 5 -22 1 -23 -7 -23 -6 -4 15 19 21 19 21 -2 21
-26 0 -29 15 -6 24 10 4 22 -1 30 -11 13 -17 13 -17 14 0 0 9 9 25 20 34 11
10 20 25 20 34 0 9 9 19 21 22 15 4 20 12 18 29 -2 15 10 41 35 73 22 28 36
43 33 34 -4 -13 -1 -16 14 -12 20 5 27 23 9 23 -16 0 -11 19 11 41 15 15 20
29 15 50 -3 16 -1 31 5 35 8 4 7 10 -2 16 -10 6 -7 7 9 3 19 -6 22 -3 21 22 0
25 -1 26 -9 8 -5 -11 -9 -17 -9 -13 -1 3 -4 13 -7 21 -7 19 27 32 38 15 6 -10
8 -8 8 5 0 9 5 17 10 17 6 0 10 -6 9 -12 -1 -7 -1 -22 0 -33 1 -18 2 -19 12
-3 7 12 7 24 0 37 -8 14 -7 21 2 24 6 2 9 8 4 12 -4 5 -13 3 -19 -3 -20 -20
-28 -14 -28 21 0 32 0 32 -50 32 -27 0 -50 3 -50 8 0 7 16 11 33 8 14 -2 18
25 8 50 l-10 24 0 -26 c-1 -32 -41 -50 -41 -18 0 10 4 19 9 19 13 0 20 25 15
47 -4 12 -15 20 -35 21 -25 2 -29 -1 -29 -22 0 -31 -30 -49 -65 -40 -19 5 -27
1 -35 -17 -14 -31 -58 -53 -77 -38 -12 11 -17 5 -14 -13 0 -5 -6 -8 -14 -8 -8
0 -15 4 -15 8 0 12 -68 34 -80 27 -6 -4 -7 -11 -4 -17 5 -7 -5 -9 -31 -4 -22
4 -41 3 -44 -2 -9 -14 -101 9 -101 25 0 8 -11 18 -24 24 -20 10 -29 8 -52 -10
-15 -11 -35 -21 -45 -21 -10 0 -21 -4 -24 -10 -3 -5 -15 -10 -26 -10 -10 0
-19 5 -19 10 0 6 -7 10 -15 10 -8 0 -15 5 -15 10 0 6 -9 10 -20 10 -11 0 -20
2 -20 4 0 2 -3 12 -7 21 -5 14 -2 16 15 10 19 -5 22 -2 22 19 0 15 -6 26 -14
26 -20 0 -8 50 13 52 36 3 78 -4 109 -18 33 -15 35 -34 4 -34 -16 -1 -16 -1 0
-11 19 -11 85 -2 94 12 3 5 -2 6 -10 3 -25 -10 -52 4 -38 18 17 17 15 28 -3
22 -8 -4 -17 1 -21 9 -3 9 -14 14 -25 12 -14 -3 -19 2 -19 16 0 11 5 17 10 14
6 -3 10 -3 10 2 0 4 -18 17 -40 27 -40 19 -51 40 -27 49 16 6 52 77 49 95 -2
6 2 12 8 12 6 0 8 5 5 10 -4 6 -10 8 -14 6 -3 -3 -17 11 -30 30 -24 35 -22 70
4 60 11 -4 15 2 15 24 0 27 2 29 24 20 21 -8 25 -6 28 13 2 14 9 21 20 19 13
-2 16 2 11 14 -5 14 -2 16 18 11 20 -5 27 -1 38 24 7 16 18 29 24 28 33 -4 47
2 47 21 0 22 15 27 23 8 5 -12 11 16 8 35 -2 12 37 8 42 -5 2 -7 10 4 17 25
13 34 40 52 40 26z m-340 -564 c0 -6 -7 -12 -15 -12 -8 0 -15 6 -15 12 0 6 7
12 15 12 8 0 15 -6 15 -12z m920 -205 c0 -5 -2 -10 -4 -10 -3 0 -8 5 -11 10
-3 6 -1 10 4 10 6 0 11 -4 11 -10z m-385 -41 c-10 -15 -25 -10 -19 6 4 8 10
12 15 9 5 -3 7 -10 4 -15z m472 -11 c-3 -7 -5 -2 -5 12 0 14 2 19 5 13 2 -7 2
-19 0 -25z m-704 -25 c-7 -2 -19 -2 -25 0 -7 3 -2 5 12 5 14 0 19 -2 13 -5z
m-213 -58 c0 -28 4 -35 20 -35 13 0 20 -7 20 -19 0 -27 16 -35 25 -13 6 16 7
15 18 -3 11 -19 11 -19 18 5 l7 25 1 -24 c2 -44 42 -100 80 -112 53 -18 89
-48 84 -69 -4 -15 -1 -18 16 -13 12 3 21 1 21 -6 0 -5 -7 -8 -15 -5 -11 5 -15
-1 -15 -22 l-1 -29 -13 25 c-10 16 -23 25 -43 26 -15 0 -35 2 -44 2 -8 1 -28
22 -43 46 -21 34 -36 46 -67 54 -45 11 -99 -7 -99 -34 0 -18 -28 -48 -53 -57
-9 -4 -28 -1 -42 5 -19 9 -25 19 -25 45 0 33 30 106 49 117 5 4 12 19 16 35 3
16 17 39 30 51 14 13 22 27 19 31 -3 5 4 9 15 9 17 0 21 -6 21 -35z m285 -45
c-11 -5 -33 -8 -50 -8 -29 0 -29 0 -5 8 14 4 36 8 50 8 23 1 23 0 5 -8z m775
-87 c-9 -15 -10 -12 -6 16 3 18 7 43 8 55 1 11 3 4 5 -16 2 -21 -1 -46 -7 -55z
m-700 69 c0 -12 -78 -37 -87 -29 -3 4 -1 7 5 7 7 0 12 7 12 15 0 10 11 15 35
15 19 0 35 -4 35 -8z m-170 -50 c0 -12 -6 -10 -25 8 -13 12 -22 27 -19 32 8
12 44 -21 44 -40z m-330 33 c0 -9 -44 -23 -54 -17 -5 3 -1 9 10 13 23 9 44 11
44 4z m584 -11 c14 -14 14 -17 0 -40 -12 -18 -20 -22 -29 -14 -9 8 -14 6 -18
-4 -4 -9 -14 -12 -26 -9 -12 3 -28 0 -36 -7 -12 -10 -19 -10 -27 -2 -14 14 13
48 45 58 12 4 27 13 35 20 18 18 37 18 56 -2z m-184 -29 c0 -8 -4 -15 -9 -15
-13 0 -22 16 -14 24 11 11 23 6 23 -9z m-193 -101 c7 -19 -34 -55 -54 -47 -20
8 -16 29 10 46 29 21 36 21 44 1z m873 -8 c0 -3 -4 -8 -10 -11 -5 -3 -10 -1
-10 4 0 6 5 11 10 11 6 0 10 -2 10 -4z m-50 -31 c-7 -9 -15 -13 -17 -11 -7 7
7 26 19 26 6 0 6 -6 -2 -15z m90 -9 c0 -3 -4 -8 -10 -11 -5 -3 -10 -1 -10 4 0
6 5 11 10 11 6 0 10 -2 10 -4z m-315 -26 c-3 -5 -14 -10 -23 -10 -15 0 -15 2
-2 10 20 13 33 13 25 0z m285 0 c0 -5 -5 -10 -11 -10 -5 0 -7 5 -4 10 3 6 8
10 11 10 2 0 4 -4 4 -10z m-608 -48 c9 -10 15 -9 34 3 13 8 33 15 45 15 21 0
22 -1 4 -20 -10 -11 -25 -20 -33 -20 -19 0 -62 -50 -62 -71 0 -20 27 -33 36
-17 5 7 12 5 21 -7 18 -26 16 -34 -7 -28 -18 5 -22 -1 -22 -27 0 -3 -9 -14
-19 -24 -19 -19 -19 -19 -19 2 0 12 -4 22 -10 22 -18 0 -50 38 -37 44 8 3 5
11 -9 23 -17 16 -19 21 -7 31 10 10 13 10 13 -3 0 -8 4 -15 9 -15 14 0 23 37
16 61 -6 18 -4 20 14 14 24 -7 25 -6 12 28 -6 14 -7 28 -3 32 4 4 9 -1 11 -12
2 -10 8 -24 13 -31z m-231 9 c6 11 11 11 20 2 9 -9 6 -19 -10 -42 -13 -17 -27
-31 -32 -31 -12 0 -11 14 3 28 8 8 8 15 0 25 -7 8 -9 17 -5 21 4 4 9 2 12 -5
2 -8 6 -7 12 2z m-406 -15 c-19 -14 -19 -15 8 -27 15 -7 27 -16 27 -21 0 -14
27 -9 40 7 7 9 15 13 18 11 2 -3 -7 -19 -21 -35 -14 -17 -33 -48 -43 -70 -11
-22 -24 -41 -31 -41 -6 0 -13 -5 -15 -12 -3 -8 -13 -5 -32 9 -27 21 -27 22 -7
33 21 11 29 40 11 40 -16 0 -12 26 6 41 10 8 14 23 12 41 -4 27 3 36 31 37 10
1 9 -3 -4 -13z m1125 -1 c0 -8 -4 -15 -10 -15 -5 0 -10 7 -10 15 0 8 5 15 10
15 6 0 10 -7 10 -15z m-672 -37 c-2 -3 8 -19 22 -35 14 -15 18 -22 10 -15 -21
18 -32 15 -25 -8 4 -11 2 -20 -4 -20 -6 0 -11 10 -11 23 0 13 -5 28 -11 34
-13 13 -3 36 13 31 5 -2 8 -6 6 -10z m466 -34 c3 -8 2 -12 -4 -9 -6 3 -10 10
-10 16 0 14 7 11 14 -7z m-401 -24 c-3 -11 -7 -20 -9 -20 -2 0 -4 9 -4 20 0
11 4 20 9 20 5 0 7 -9 4 -20z m407 -19 c0 -11 -4 -23 -10 -26 -5 -3 -10 -21
-10 -40 0 -19 -4 -37 -10 -40 -5 -3 -10 3 -10 14 0 11 -7 26 -15 35 -15 15
-11 46 7 46 6 0 8 -7 5 -14 -4 -10 -1 -13 9 -9 7 3 14 16 14 29 0 13 5 24 10
24 6 0 10 -9 10 -19z m40 -56 c-6 -8 -9 -18 -6 -23 6 -10 -29 -23 -38 -15 -3
3 0 11 7 18 7 7 19 22 27 34 8 12 16 17 18 11 2 -6 -1 -17 -8 -25z m-115 -5
c3 -5 2 -10 -4 -10 -5 0 -13 5 -16 10 -3 6 -2 10 4 10 5 0 13 -4 16 -10z
m-120 -30 c3 -5 -1 -10 -10 -10 -9 0 -13 5 -10 10 3 6 8 10 10 10 2 0 7 -4 10
-10z m-743 -14 c10 -5 14 -14 11 -23 -5 -13 -3 -14 17 -3 18 9 24 9 30 0 8
-13 59 -10 91 4 10 4 23 1 32 -8 9 -9 23 -16 31 -16 10 0 16 -9 16 -24 0 -27
15 -42 25 -27 3 6 12 8 20 4 9 -3 22 0 30 7 8 6 19 9 25 5 5 -3 10 -1 10 4 0
6 7 11 15 11 8 0 15 4 15 10 0 5 7 7 15 4 11 -5 13 -2 8 12 -6 16 -4 16 20 -2
33 -24 34 -36 2 -28 -22 5 -25 3 -23 -20 3 -29 8 -32 26 -14 9 9 12 9 12 0 0
-19 14 -14 25 10 13 29 35 35 35 9 0 -11 5 -23 10 -26 6 -3 10 -2 10 3 0 13
39 22 46 11 10 -18 24 2 18 27 -5 18 -2 24 10 24 12 0 15 -6 10 -25 -4 -15 -2
-25 5 -25 6 0 11 6 11 13 1 30 30 -31 36 -76 4 -27 10 -43 14 -37 5 8 12 5 24
-11 11 -16 12 -25 5 -30 -7 -4 -9 -11 -5 -17 9 -15 -23 -37 -36 -24 -7 7 -17
4 -33 -14 -12 -13 -29 -24 -38 -24 -9 0 -18 -4 -21 -9 -8 -12 -76 -19 -76 -8
0 5 -12 6 -27 1 -32 -8 -129 -8 -143 1 -17 10 -11 25 9 25 26 0 33 13 25 45
-7 29 -22 33 -31 8 -13 -34 -53 -46 -54 -15 0 13 -2 12 -9 -5 -10 -24 -40 -22
-40 3 0 20 -16 17 -48 -6 -15 -11 -36 -19 -47 -17 -25 4 -95 66 -95 84 0 8 -4
12 -9 9 -13 -8 -44 43 -37 60 3 8 -1 17 -9 20 -8 4 -15 11 -15 16 0 6 6 5 15
-2 12 -10 15 -10 15 3 0 8 7 18 16 21 25 10 13 49 -19 57 -15 4 -25 4 -22 -1
8 -13 -6 -40 -21 -40 -17 0 -19 16 -3 25 6 4 8 14 5 22 -3 8 -4 18 -2 22 6 9
45 7 68 -3z m673 -6 c-3 -5 -12 -10 -18 -10 -7 0 -6 4 3 10 19 12 23 12 15 0z
m561 -42 c13 -41 15 -70 10 -147 -11 -155 -21 -211 -68 -369 -6 -20 -16 -32
-27 -32 -12 0 -300 166 -319 184 -1 2 20 26 48 55 28 29 48 57 45 62 -4 5 -1
9 6 9 6 0 9 8 6 20 -3 11 0 18 6 17 6 -1 20 16 33 37 20 35 23 37 26 16 3 -22
5 -21 41 16 20 21 37 42 37 47 0 15 112 137 125 137 8 0 21 -23 31 -52z
m-1021 32 c3 -5 2 -10 -4 -10 -5 0 -13 5 -16 10 -3 6 -2 10 4 10 5 0 13 -4 16
-10z m765 0 c0 -5 -4 -10 -10 -10 -5 0 -10 5 -10 10 0 6 5 10 10 10 6 0 10 -4
10 -10z m-273 -6 c-3 -3 -12 -4 -19 -1 -8 3 -5 6 6 6 11 1 17 -2 13 -5z m186
-18 c-12 -22 -84 -76 -93 -71 -4 3 -10 -1 -13 -9 -6 -14 -47 -29 -47 -17 0 15
42 41 66 41 14 0 23 4 19 10 -3 6 -2 10 3 10 5 0 22 11 38 25 33 29 38 31 27
11z m-243 -10 c0 -3 -4 -8 -10 -11 -5 -3 -10 -1 -10 4 0 6 5 11 10 11 6 0 10
-2 10 -4z m300 -26 c0 -4 -11 -20 -25 -36 -23 -27 -23 -29 -7 -46 29 -29 43
-48 37 -49 -3 -1 -10 -2 -15 -3 -6 0 -15 -8 -20 -16 -5 -8 -13 -11 -17 -6 -4
4 0 13 10 20 24 18 21 34 -8 48 -17 7 -25 19 -25 35 0 13 4 22 8 19 5 -3 15
10 22 29 11 27 16 32 27 24 7 -7 13 -15 13 -19z m37 24 c-3 -3 -12 -4 -19 -1
-8 3 -5 6 6 6 11 1 17 -2 13 -5z m-773 -380 c3 -9 6 -26 6 -39 0 -13 7 -30 15
-39 25 -24 17 -43 -31 -81 -66 -50 -74 -48 -49 11 8 20 20 65 26 100 11 64 21
79 33 48z m616 -19 c0 -8 -105 -75 -118 -75 -7 0 -41 -21 -74 -46 -45 -35 -62
-44 -68 -34 -9 15 55 90 78 90 7 0 10 5 6 12 -5 8 -2 9 9 5 13 -5 17 -1 17 14
0 17 4 20 24 15 13 -3 39 1 57 9 34 14 69 19 69 10z"/>
<path d="M800 1909 c0 -18 2 -19 15 -9 15 12 12 30 -6 30 -5 0 -9 -10 -9 -21z"/>
<path d="M864 1906 c-3 -8 -12 -12 -20 -9 -21 8 -17 -15 5 -27 28 -15 90 -12
107 4 21 22 18 26 -21 26 -19 0 -35 5 -35 10 0 15 -30 12 -36 -4z"/>
<path d="M990 1878 c0 -19 2 -20 10 -8 13 19 13 30 0 30 -5 0 -10 -10 -10 -22z"/>
<path d="M971 1854 c0 -11 3 -14 6 -6 3 7 2 16 -1 19 -3 4 -6 -2 -5 -13z"/>
<path d="M1041 1854 c0 -11 3 -14 6 -6 3 7 2 16 -1 19 -3 4 -6 -2 -5 -13z"/>
<path d="M1100 1859 c-11 -8 -12 -12 -2 -16 7 -2 20 -12 29 -21 9 -9 22 -17
30 -18 8 -2 23 -10 34 -20 28 -25 24 2 -4 29 -26 24 -66 57 -70 57 -1 0 -9 -5
-17 -11z"/>
<path d="M1281 1634 c0 -11 3 -14 6 -6 3 7 2 16 -1 19 -3 4 -6 -2 -5 -13z"/>
<path d="M1252 1550 c0 -14 2 -19 5 -12 2 6 2 18 0 25 -3 6 -5 1 -5 -13z"/>
<path d="M1274 1504 c3 -8 6 -18 6 -20 0 -3 5 -2 10 1 15 9 12 22 -6 29 -12 5
-15 2 -10 -10z"/>
<path d="M1134 1146 c-3 -9 -15 -16 -25 -16 -25 0 -25 -16 0 -23 13 -3 23 3
32 19 7 13 9 27 6 30 -4 4 -9 -1 -13 -10z"/>
<path d="M1026 1051 c-4 -7 -5 -15 -2 -18 9 -9 19 4 14 18 -4 11 -6 11 -12 0z"/>
<path d="M1030 899 c0 -5 5 -7 10 -4 6 3 10 8 10 11 0 2 -4 4 -10 4 -5 0 -10
-5 -10 -11z"/>
<path d="M975 864 c-9 -14 -14 -28 -12 -31 6 -5 47 37 47 49 0 17 -18 7 -35
-18z"/>
<path d="M930 795 c0 -8 2 -15 4 -15 2 0 6 7 10 15 3 8 1 15 -4 15 -6 0 -10
-7 -10 -15z"/>
<path d="M750 816 c0 -14 5 -26 10 -26 6 0 10 9 10 19 0 11 -4 23 -10 26 -6 4
-10 -5 -10 -19z"/>
<path d="M781 774 c0 -11 3 -14 6 -6 3 7 2 16 -1 19 -3 4 -6 -2 -5 -13z"/>
<path d="M393 581 c-3 -12 -9 -21 -14 -21 -5 0 -9 -21 -9 -46 0 -27 4 -43 10
-39 6 3 10 21 10 40 0 27 3 32 19 28 15 -4 18 0 14 21 -7 34 -23 43 -30 17z"/>
<path d="M670 580 c0 -13 59 -42 70 -35 15 9 12 37 -2 32 -7 -2 -25 0 -40 4
-16 4 -28 4 -28 -1z"/>
<path d="M330 556 c0 -14 5 -28 10 -31 6 -4 10 7 10 24 0 17 -4 31 -10 31 -5
0 -10 -11 -10 -24z"/>
<path d="M480 550 c0 -5 5 -10 10 -10 6 0 10 5 10 10 0 6 -4 10 -10 10 -5 0
-10 -4 -10 -10z"/>
<path d="M543 539 c1 -20 64 -76 74 -66 11 12 -9 43 -41 64 -34 22 -35 22 -33
2z"/>
<path d="M690 506 c0 -16 18 -31 27 -22 3 3 -2 12 -11 21 -14 14 -16 14 -16 1z"/>
<path d="M491 494 c0 -11 3 -14 6 -6 3 7 2 16 -1 19 -3 4 -6 -2 -5 -13z"/>
<path d="M401 464 c0 -11 3 -14 6 -6 3 7 2 16 -1 19 -3 4 -6 -2 -5 -13z"/>
<path d="M550 459 c0 -5 5 -7 10 -4 6 3 10 8 10 11 0 2 -4 4 -10 4 -5 0 -10
-5 -10 -11z"/>
<path d="M662 450 c0 -14 2 -19 5 -12 2 6 2 18 0 25 -3 6 -5 1 -5 -13z"/>
</g>
</svg>
