<?xml version="1.0" standalone="no"?>
<!DOCTYPE svg PUBLIC "-//W3C//DTD SVG 20010904//EN"
 "http://www.w3.org/TR/2001/REC-SVG-20010904/DTD/svg10.dtd">
<svg version="1.0" xmlns="http://www.w3.org/2000/svg"
 width="159.000000pt" height="168.000000pt" viewBox="0 0 159.000000 168.000000"
 preserveAspectRatio="xMidYMid meet">

<g transform="translate(0.000000,168.000000) scale(0.100000,-0.100000)"
fill="#000000" stroke="none">
<path d="M565 1647 c-217 -16 -435 -77 -465 -129 -13 -24 -13 -29 4 -46 17
-20 17 -20 -14 -27 -37 -8 -33 -15 31 -50 120 -68 245 -127 330 -156 l94 -33
-43 -8 c-77 -13 -118 -68 -51 -68 18 0 28 -4 24 -10 -10 -15 12 -12 28 5 14
13 20 13 54 -2 46 -20 43 -19 71 -28 12 -4 22 -14 22 -22 0 -13 -3 -13 -15 -3
-13 11 -14 10 -9 -4 3 -9 1 -23 -6 -31 -6 -8 -9 -19 -5 -26 5 -8 1 -8 -15 1
-12 7 -20 8 -16 2 13 -22 -26 -20 -80 4 -31 14 -59 22 -62 19 -3 -3 1 -5 8 -5
7 0 11 -3 7 -6 -3 -3 4 -17 16 -30 21 -24 57 -33 57 -13 0 5 5 7 10 4 6 -4 8
-11 5 -16 -4 -5 0 -10 7 -11 19 -2 50 -5 76 -7 13 0 20 -5 17 -11 -3 -5 -1
-10 4 -10 6 0 11 9 11 19 0 11 5 21 11 23 6 2 12 17 12 32 0 19 2 24 8 15 4
-7 11 -10 15 -6 4 4 13 -1 20 -11 12 -16 13 -16 14 0 0 20 42 36 48 19 3 -9 9
-8 22 4 16 15 17 13 15 -24 -2 -31 1 -38 13 -34 11 5 12 2 4 -13 -6 -10 -17
-28 -26 -39 -13 -17 -15 -18 -16 -3 0 9 -5 20 -12 24 -8 5 -9 0 -5 -16 4 -17
1 -23 -14 -27 -14 -4 -18 -11 -14 -24 4 -10 -4 -34 -19 -56 -16 -24 -26 -59
-30 -96 -6 -65 -11 -77 -30 -77 -17 0 -29 -40 -13 -40 7 -1 1 -7 -13 -15 -14
-8 -19 -14 -12 -15 6 0 12 -5 12 -11 0 -5 -5 -7 -12 -3 -8 5 -9 2 -5 -10 4 -9
3 -14 -2 -11 -16 9 -62 -17 -56 -33 12 -33 -22 -2 -42 38 -17 32 -20 47 -12
57 6 7 8 24 5 38 -7 26 -20 32 -31 15 -4 -7 -24 -8 -51 -4 -30 4 -49 2 -59 -6
-10 -9 -36 -11 -79 -8 -61 5 -63 5 -58 -18 2 -13 7 -23 11 -22 3 1 23 -6 43
-15 21 -10 42 -17 49 -17 6 0 8 -7 5 -16 -3 -9 -6 -18 -6 -20 0 -2 -5 -4 -11
-4 -5 0 -8 4 -5 9 3 5 0 13 -7 18 -17 14 -79 34 -85 28 -9 -9 27 -77 37 -70 5
3 13 0 16 -6 4 -5 13 -8 21 -5 19 7 17 -4 -6 -39 l-19 -29 -11 24 c-8 20 -9
16 -5 -25 5 -38 1 -60 -15 -92 -24 -51 -50 -70 -108 -79 -23 -4 -45 -11 -48
-15 -3 -5 -16 -9 -30 -9 -27 0 -32 -15 -9 -24 8 -3 12 -12 9 -19 -5 -14 49
-77 65 -77 4 0 18 -11 31 -25 13 -14 28 -25 34 -25 6 0 26 -14 45 -31 42 -36
94 -38 99 -3 2 12 -3 28 -10 35 -7 8 -14 32 -15 54 -2 22 -10 57 -20 78 -16
36 -16 38 7 62 34 36 55 29 55 -18 0 -40 -4 -44 -24 -25 -11 11 -11 9 -1 -12
7 -14 16 -27 19 -30 4 -3 22 -42 41 -87 l35 -83 578 0 577 0 0 153 0 153 -44
20 c-59 26 -140 120 -196 228 -37 72 -50 88 -72 93 -28 5 -36 17 -20 27 5 3
14 30 21 61 11 48 15 55 36 55 22 0 24 3 19 30 -4 19 -2 30 5 30 14 0 15 66 1
75 -31 19 9 69 64 79 79 15 139 121 116 204 -7 28 -22 45 -59 69 -42 27 -50
38 -61 81 -41 173 -456 317 -835 289z m115 -601 c0 -2 -9 -6 -20 -9 -11 -3
-20 -1 -20 4 0 5 9 9 20 9 11 0 20 -2 20 -4z m420 -96 c0 -5 -5 -10 -11 -10
-5 0 -7 5 -4 10 3 6 8 10 11 10 2 0 4 -4 4 -10z m79 -105 c1 -70 -1 -77 -25
-100 -44 -41 -61 -33 -19 9 27 27 27 58 -1 103 -15 25 -9 53 12 53 8 0 14 5
14 11 0 5 4 8 9 5 5 -3 9 -40 10 -81z m68 23 c-3 -8 -6 -5 -6 6 -1 11 2 17 5
13 3 -3 4 -12 1 -19z m-123 -82 c-6 -15 -24 -23 -24 -11 0 8 24 34 28 30 1 -1
0 -10 -4 -19z m55 -65 c-13 -17 -27 -31 -32 -31 -5 0 4 15 20 33 35 42 43 40
12 -2z m-101 17 c-3 -7 6 -23 19 -36 26 -26 29 -34 9 -26 -9 3 -17 -3 -21 -15
-8 -27 -60 -30 -67 -3 -7 24 2 43 15 35 7 -4 8 0 4 12 -4 9 -2 24 4 31 14 17
42 18 37 2z m-658 -461 c0 -4 5 -5 12 -1 7 4 8 3 4 -5 -6 -9 -11 -9 -21 -1
-10 8 -14 7 -17 -4 -2 -12 -9 -9 -28 11 l-25 26 24 -8 c17 -5 21 -4 16 5 -5 8
0 7 14 -2 12 -7 21 -16 21 -21z"/>
<path d="M240 1259 c0 -5 -4 -7 -10 -4 -5 3 -10 0 -10 -8 0 -24 24 -64 36 -60
6 2 14 -6 17 -19 4 -12 8 -20 11 -17 7 6 -28 119 -36 119 -5 0 -8 -5 -8 -11z"/>
<path d="M373 1063 c-17 -27 -37 -55 -45 -64 -8 -8 -18 -28 -22 -44 -3 -17 -8
-35 -9 -42 -2 -7 -6 -16 -10 -19 -4 -4 -7 -17 -7 -29 0 -12 -9 -34 -20 -48
-11 -14 -20 -31 -20 -39 -1 -8 -9 -3 -20 11 -13 15 -20 18 -20 9 0 -17 33 -48
72 -68 25 -12 30 -11 48 5 18 16 20 16 20 2 0 -12 9 -16 36 -15 28 1 38 7 45
25 22 58 21 68 -15 110 -27 31 -32 42 -22 46 8 3 17 1 20 -6 2 -7 5 -1 5 13 1
14 -6 35 -14 47 -12 17 -12 23 -1 32 7 6 16 7 20 3 5 -4 7 0 5 8 -1 8 1 22 5
32 10 23 4 71 -10 75 -7 2 -25 -18 -41 -44z m-5 -125 c7 -7 12 -16 12 -20 0
-15 -15 -8 -28 12 -13 22 -3 27 16 8z"/>
<path d="M236 1072 c-6 -10 30 -52 38 -45 13 14 5 41 -14 46 -11 3 -22 2 -24
-1z"/>
<path d="M440 723 c0 -17 16 -31 27 -25 9 6 6 11 -7 20 -11 7 -20 9 -20 5z"/>
<path d="M236 667 c3 -10 9 -15 12 -12 3 3 0 11 -7 18 -10 9 -11 8 -5 -6z"/>
</g>
</svg>
