<?xml version="1.0" standalone="no"?>
<!DOCTYPE svg PUBLIC "-//W3C//DTD SVG 20010904//EN"
 "http://www.w3.org/TR/2001/REC-SVG-20010904/DTD/svg10.dtd">
<svg version="1.0" xmlns="http://www.w3.org/2000/svg"
 width="225.000000pt" height="225.000000pt" viewBox="0 0 225.000000 225.000000"
 preserveAspectRatio="xMidYMid meet">

<g transform="translate(0.000000,225.000000) scale(0.100000,-0.100000)"
fill="#000000" stroke="none">
<path d="M107 2230 c3 -11 7 -20 8 -20 1 0 5 9 8 20 3 12 0 20 -8 20 -8 0 -11
-8 -8 -20z"/>
<path d="M159 2235 c-2 -24 -4 -29 -13 -43 -4 -7 -5 -16 -1 -20 9 -9 45 40 38
52 -4 5 1 7 12 3 9 -4 24 -2 31 4 11 9 15 7 20 -5 10 -25 -3 -47 -23 -39 -14
5 -16 3 -6 -7 9 -10 15 -10 26 -1 11 9 17 8 27 -4 7 -9 9 -19 5 -23 -4 -4 -10
-1 -12 6 -8 21 -43 -32 -36 -56 6 -26 33 -18 33 10 0 10 5 16 10 13 6 -3 10
-19 10 -35 0 -22 -4 -28 -15 -24 -19 8 -19 -1 1 -31 11 -17 12 -25 4 -25 -7 0
-6 -5 3 -15 9 -8 18 -20 21 -27 5 -10 7 -10 12 1 5 11 8 11 15 0 7 -11 9 -10
9 4 0 14 5 17 19 12 21 -6 34 5 23 20 -9 13 -42 16 -42 4 0 -4 -8 -13 -19 -18
-16 -9 -18 -6 -16 27 1 20 3 52 4 70 1 34 21 46 21 13 0 -21 16 -38 17 -18 0
7 4 25 8 40 7 27 7 28 -13 16 -12 -7 -25 -10 -29 -6 -4 5 -1 12 7 18 12 7 11
10 -7 15 -24 7 -30 19 -14 28 5 3 11 16 13 29 5 23 3 24 -69 25 -58 2 -73 -1
-74 -13z"/>
<path d="M323 2209 c0 -26 3 -36 8 -27 7 10 9 10 9 -2 1 -8 8 1 17 20 9 22 17
30 20 21 3 -7 2 -16 -3 -20 -13 -9 -18 -75 -5 -66 7 4 11 -3 12 -17 0 -22 1
-22 9 -3 13 30 12 43 -5 47 -10 2 -12 7 -5 18 9 13 12 13 21 -2 5 -10 15 -18
21 -18 9 0 9 3 0 12 -9 9 -7 14 6 24 21 16 42 18 42 3 0 -5 -4 -7 -10 -4 -5 3
-10 3 -10 -2 0 -4 -3 -18 -6 -30 -5 -17 -2 -23 10 -23 9 0 16 -6 16 -14 0 -8
5 -18 11 -22 8 -4 9 0 4 15 -3 12 -2 21 4 21 5 0 18 3 28 6 11 4 14 3 6 -3 -6
-4 -13 -23 -16 -42 -4 -25 -3 -31 6 -22 14 14 30 15 22 1 -4 -6 4 -9 17 -7 19
2 24 -3 26 -30 3 -32 -3 -38 -34 -34 -7 1 -14 -10 -16 -24 -4 -21 0 -29 24
-41 16 -9 26 -20 22 -26 -5 -7 0 -9 15 -5 14 3 21 1 18 -6 -4 -12 -67 -29 -67
-18 0 4 -9 7 -20 7 -11 0 -20 -4 -20 -9 0 -4 -5 -5 -10 -2 -16 10 -80 -34 -91
-62 -14 -37 -11 -49 7 -31 12 12 20 13 40 4 13 -6 24 -18 24 -27 0 -19 -33
-36 -38 -20 -2 6 -11 11 -19 11 -10 0 -13 -6 -8 -17 5 -15 4 -16 -6 -5 -19 18
-29 15 -29 -8 0 -11 10 -30 21 -41 17 -17 23 -19 30 -8 6 9 3 15 -6 17 -19 4
-19 18 -1 25 15 6 30 -19 20 -34 -3 -5 0 -9 5 -9 6 0 11 -9 11 -20 0 -11 -4
-20 -10 -20 -5 0 -10 -9 -10 -19 0 -11 -3 -21 -7 -23 -18 -7 -43 -70 -34 -85
7 -14 11 -13 29 5 l20 20 6 -31 c4 -20 0 -44 -14 -71 -19 -41 -19 -42 -1 -103
10 -34 16 -64 13 -67 -3 -3 -1 -6 5 -6 6 0 13 -13 16 -29 4 -18 14 -30 28 -34
21 -6 22 -10 16 -71 -6 -64 -2 -85 40 -231 8 -27 18 -63 23 -80 6 -26 8 -27
15 -11 7 16 9 15 21 -10 9 -20 12 -22 8 -6 -3 12 -1 22 5 22 6 0 10 -3 9 -7 0
-5 2 -16 6 -25 4 -9 6 -24 4 -32 -3 -14 -6 -14 -32 -1 -16 9 -32 13 -35 9 -10
-9 50 -56 65 -50 11 4 14 -5 14 -38 0 -91 55 -272 97 -318 14 -16 13 -18 -13
-24 -40 -9 -95 -43 -122 -76 -13 -16 -28 -26 -33 -23 -5 4 -6 0 -3 -8 7 -19
-22 -41 -42 -33 -14 5 -15 4 -5 -8 19 -22 3 -64 -30 -78 -16 -7 -29 -16 -29
-20 0 -5 -6 -8 -14 -8 -8 0 -16 -5 -18 -11 -5 -14 -38 0 -38 16 0 17 -23 25
-49 18 -16 -4 -21 -1 -21 15 0 12 5 24 10 27 6 3 10 1 10 -4 0 -20 30 -11 46
14 21 32 49 34 40 2 -3 -12 -6 -25 -6 -29 0 -5 -6 -8 -14 -8 -10 0 -12 -7 -8
-23 5 -19 7 -19 10 -4 2 11 9 16 18 13 8 -3 12 -2 9 4 -7 12 5 60 15 60 4 0
11 -10 15 -23 7 -21 7 -21 12 -2 3 11 8 25 12 30 4 6 2 26 -5 45 -7 20 -13 27
-13 16 -1 -15 -4 -16 -16 -6 -9 8 -15 9 -15 2 0 -6 5 -14 10 -17 15 -9 12 -25
-5 -25 -8 0 -15 6 -15 13 0 6 -3 23 -7 36 -5 19 -3 22 8 16 8 -5 7 0 -4 12 -9
11 -16 22 -15 24 2 2 -4 -4 -13 -14 -19 -23 -69 -30 -69 -11 0 8 -7 14 -16 14
-8 0 -13 4 -9 10 3 5 -7 3 -22 -5 -33 -18 -43 -19 -43 -5 0 6 9 10 19 10 20 0
32 19 38 64 3 17 0 26 -6 22 -6 -4 -8 -13 -4 -21 9 -24 -16 -17 -43 12 l-26
28 2 -25 c5 -53 0 -68 -17 -66 -10 2 -19 10 -21 19 -4 20 14 23 21 5 4 -10 3
40 -2 115 -1 4 -5 7 -11 7 -5 0 -9 -10 -7 -22 1 -16 -3 -22 -13 -20 -8 2 -30
4 -47 5 -18 0 -28 4 -22 8 7 4 4 9 -7 13 -16 6 -15 8 2 28 19 21 19 21 -11 14
l-29 -7 19 22 c20 22 20 22 0 15 -16 -6 -18 -5 -7 5 14 15 16 33 2 24 -6 -3
-10 -3 -10 2 0 16 19 37 36 39 23 4 43 24 24 24 -9 1 -3 10 15 25 16 13 26 27
22 31 -4 4 -13 0 -20 -9 -12 -18 -60 -19 -86 -3 -11 7 -11 10 0 17 8 5 9 9 3
9 -6 0 -17 -7 -24 -15 -8 -10 -9 -15 -2 -15 6 0 9 -7 6 -15 -5 -11 1 -13 30
-8 33 5 36 3 36 -18 0 -22 0 -22 -15 -3 -14 18 -14 18 -15 -5 0 -23 -1 -24
-20 -6 -16 14 -24 16 -42 7 l-23 -11 23 0 c21 -1 22 -2 8 -17 -23 -23 -20 -34
12 -35 24 0 25 -1 7 -9 -18 -7 -19 -8 -3 -15 10 -4 18 -16 18 -26 0 -15 -5
-17 -30 -13 -36 8 -42 -14 -10 -34 12 -7 20 -8 20 -2 0 5 10 8 21 7 16 -3 23
-12 25 -36 3 -20 0 -30 -6 -26 -6 3 -10 15 -10 26 0 22 -1 23 -34 8 -13 -6
-27 -23 -31 -36 -3 -13 -5 -101 -5 -194 l2 -169 35 0 c30 0 35 3 30 19 -5 19
10 31 36 31 7 0 6 -4 -2 -9 -8 -5 -16 -17 -17 -25 -3 -24 247 -24 270 0 9 8
25 17 37 19 21 4 21 4 4 -15 -18 -20 -16 -20 183 -20 l201 0 -1 33 c-1 33 -34
81 -50 71 -5 -3 -2 -16 6 -29 11 -17 13 -30 7 -47 -6 -13 -10 -17 -10 -10 -1
7 -7 20 -15 27 -15 16 -19 113 -7 185 l7 45 17 -35 c27 -56 83 -130 100 -130
4 0 20 -11 34 -25 28 -25 45 -26 24 -1 -17 20 11 28 38 10 18 -13 22 -13 41 6
11 11 26 18 31 14 8 -4 7 -9 -1 -14 -8 -5 -5 -9 9 -13 12 -3 21 -1 21 4 0 15
30 10 36 -6 10 -25 25 -17 18 9 -5 21 -3 24 16 19 16 -4 18 -8 9 -14 -11 -6
-10 -9 3 -14 17 -7 78 20 78 34 0 4 11 6 25 3 25 -4 35 12 13 21 -8 3 -6 6 5
6 9 1 17 6 17 12 0 5 4 8 8 5 4 -2 14 -1 22 5 10 5 -31 9 -112 9 -75 0 -129 4
-133 10 -4 6 -10 8 -15 5 -5 -3 -15 4 -23 16 -10 14 -16 16 -19 8 -3 -10 -11
-10 -36 0 -18 7 -32 16 -33 20 0 3 -2 15 -4 25 -2 11 1 28 6 38 5 10 6 18 2
17 -26 -4 -33 2 -23 20 8 16 6 21 -10 26 -13 4 -23 18 -27 36 -3 16 -9 29 -14
29 -5 0 -9 16 -9 35 0 19 -4 35 -9 35 -5 0 -11 6 -14 14 -4 11 3 13 34 9 21
-3 39 -2 39 3 0 5 83 9 184 9 162 0 182 2 159 14 -44 22 -83 30 -107 21 -16
-6 -35 -3 -64 10 -43 19 -59 18 -127 -10 -16 -7 -42 -13 -57 -13 -15 0 -25 -3
-23 -8 3 -4 0 -11 -6 -15 -8 -5 -10 1 -7 20 4 20 1 26 -13 26 -19 0 -21 6 -23
65 -1 26 -4 30 -28 27 -14 -2 -29 1 -32 7 -10 16 -14 71 -5 71 5 0 9 -4 9 -10
0 -5 5 -10 10 -10 16 0 12 22 -7 35 -15 11 -15 19 -6 61 10 42 10 51 -4 62
-11 7 -12 12 -4 12 7 0 10 4 6 10 -3 5 -13 6 -23 3 -12 -4 -10 0 6 15 13 11
19 23 14 26 -6 3 -13 -2 -17 -12 -7 -16 -8 -15 -15 3 -13 30 -12 38 5 31 12
-4 14 0 9 18 -4 16 -1 23 10 23 8 0 14 -3 13 -6 -3 -8 8 -11 33 -11 16 0 20 7
20 34 0 18 7 39 15 46 8 7 15 10 15 6 0 -3 15 0 34 8 32 13 38 12 82 -10 55
-28 70 -30 77 -9 9 21 0 54 -29 112 -27 54 -45 65 -124 75 -14 2 -30 7 -37 11
-6 4 -24 9 -40 11 -15 2 -37 7 -48 11 -14 5 -16 4 -7 -3 11 -7 11 -10 -2 -15
-12 -5 -16 0 -16 23 0 24 3 28 18 23 15 -6 15 -5 3 10 -12 15 -11 17 3 17 9 0
15 6 13 12 -1 7 13 19 31 27 20 9 31 20 28 28 -3 8 5 18 19 25 14 6 25 16 25
21 0 5 -7 3 -16 -4 -14 -11 -15 -10 -12 11 2 18 8 24 23 22 19 -2 19 -2 3 11
-22 17 -24 31 -4 24 8 -3 16 -3 18 1 6 14 83 54 113 59 55 8 131 51 134 76 1
4 4 7 7 6 4 0 10 5 15 13 6 10 11 9 22 -6 18 -24 82 -24 108 0 10 9 36 18 56
19 62 4 63 4 63 26 0 17 4 20 23 15 12 -3 26 -6 31 -6 4 0 5 -8 2 -17 -3 -10
4 -6 17 10 24 29 43 35 49 15 5 -14 88 -20 88 -6 0 6 -7 8 -15 4 -10 -3 -15 1
-15 11 0 9 3 13 7 10 3 -4 13 2 21 14 9 13 18 17 25 10 9 -7 12 0 13 24 0 24
-3 32 -13 28 -7 -3 -19 0 -27 6 -7 6 -16 8 -19 4 -4 -3 -7 1 -7 10 0 12 8 17
26 17 14 0 23 4 19 10 -3 6 -19 10 -36 10 -16 0 -29 1 -29 3 0 1 7 20 14 42
15 43 57 65 83 43 16 -13 28 -3 38 32 4 17 3 21 -3 11 -19 -26 -37 -6 -37 42
-1 52 -11 69 -28 47 -16 -20 -57 -24 -57 -6 0 7 9 16 20 19 11 3 20 12 20 21
0 13 -6 15 -27 10 -16 -4 -34 -11 -40 -17 -9 -7 -13 -5 -13 8 0 14 -6 16 -35
11 -25 -5 -35 -3 -35 6 0 9 -3 9 -10 -2 -8 -13 -12 -11 -30 8 -11 12 -32 25
-45 28 -14 3 -25 10 -25 16 0 5 -5 6 -12 2 -7 -4 -27 -7 -45 -6 -18 2 -33 -2
-33 -8 0 -5 7 -10 15 -10 9 0 12 -6 9 -15 -4 -8 -18 -15 -32 -15 -14 0 -22 3
-19 7 4 3 -1 12 -11 20 -12 10 -14 16 -4 19 6 3 12 12 12 20 0 8 8 14 17 14 9
0 13 3 10 7 -4 3 -19 0 -33 -7 -19 -11 -27 -11 -32 -3 -12 18 -271 16 -289 -3
-18 -17 -8 -35 15 -27 16 5 16 4 -1 -13 -15 -17 -19 -17 -28 -4 -8 11 -12 12
-16 3 -2 -7 -9 -13 -14 -13 -16 0 -10 25 11 48 l21 22 -21 0 c-13 0 -20 -7
-20 -19 0 -12 -15 -26 -45 -40 -47 -22 -69 -50 -59 -75 13 -33 -9 -38 -23 -5
-15 37 -41 69 -55 69 -5 0 3 -11 17 -25 14 -14 25 -29 25 -33 -1 -14 -28 -42
-41 -42 -10 0 -10 3 -1 12 7 7 12 19 12 28 -1 23 -30 -19 -30 -43 0 -10 -4
-15 -10 -12 -5 3 -10 18 -10 33 0 15 -4 22 -8 16 -11 -17 -45 -25 -62 -14 -8
5 -11 12 -7 17 5 4 12 2 16 -5 5 -9 14 -6 34 12 29 27 36 49 12 40 -12 -5 -15
3 -16 37 0 24 -3 38 -6 32 -7 -18 -23 -16 -23 2 0 8 -4 15 -10 15 -5 0 -10 -5
-10 -12 0 -9 -3 -9 -12 0 -15 15 -84 16 -94 1 -5 -8 -9 -8 -14 1 -10 16 -60 1
-60 -19 0 -13 -2 -14 -9 -1 -6 8 -7 18 -5 22 3 4 1 8 -4 8 -5 0 -9 -18 -9 -41z
m637 23 c0 -13 -12 -22 -22 -16 -10 6 -1 24 13 24 5 0 9 -4 9 -8z m-420 -32
c0 -5 -5 -10 -11 -10 -5 0 -7 5 -4 10 3 6 8 10 11 10 2 0 4 -4 4 -10z m-30 -7
c0 -5 -5 -15 -10 -23 -8 -12 -10 -11 -10 8 0 12 5 22 10 22 6 0 10 -3 10 -7z
m716 -72 c26 -20 20 -41 -12 -41 -14 0 -23 -4 -19 -9 3 -5 -5 -13 -17 -17
l-23 -8 25 -6 c24 -7 24 -7 -14 -23 -21 -10 -46 -17 -55 -17 -9 0 -25 -7 -35
-15 -17 -13 -18 -15 -3 -15 9 0 17 -5 17 -10 0 -7 21 -9 55 -5 40 3 54 1 52
-8 -1 -6 7 -12 18 -13 40 -2 44 -4 39 -18 -4 -9 3 -16 18 -19 22 -4 -73 -11
-101 -7 -10 1 -12 -6 -7 -23 5 -21 3 -24 -13 -20 -10 3 -29 -1 -41 -7 -19 -10
-22 -10 -18 1 4 11 -10 14 -64 16 -67 2 -122 23 -99 38 6 3 16 3 21 0 6 -3 10
-1 10 4 0 6 -6 11 -12 11 -9 0 -8 4 2 10 8 5 11 10 6 10 -6 0 -1 7 10 16 18
14 14 15 -43 11 -35 -2 -63 0 -63 4 0 7 9 11 125 44 33 10 64 21 69 25 12 12
-4 33 -17 22 -7 -4 -25 -9 -41 -10 -24 -2 -26 0 -16 12 6 8 18 12 26 9 8 -3
14 -1 14 4 0 5 16 15 35 22 19 7 35 18 35 25 0 35 93 40 136 7z m-466 -21 c0
-5 -5 -10 -11 -10 -5 0 -7 5 -4 10 3 6 8 10 11 10 2 0 4 -4 4 -10z m-160 -20
c0 -5 -4 -10 -10 -10 -5 0 -10 5 -10 10 0 6 5 10 10 10 6 0 10 -4 10 -10z
m109 -47 c1 -7 -3 -13 -9 -13 -5 0 -10 17 -9 38 1 33 2 34 9 12 4 -14 8 -31 9
-37z m-7 -37 c-3 -4 -8 -3 -12 4 -10 15 -50 -17 -44 -35 6 -14 -28 -16 -38 -1
-4 5 -4 14 -1 19 3 5 9 4 13 -3 5 -8 14 2 26 28 l19 39 21 -21 c11 -11 18 -25
16 -30z m68 44 c0 -5 -7 -10 -15 -10 -8 0 -14 -5 -12 -11 1 -6 -4 -14 -10 -16
-8 -3 -13 5 -13 21 0 21 5 26 25 26 14 0 25 -4 25 -10z m60 0 c0 -5 -2 -10 -4
-10 -3 0 -8 5 -11 10 -3 6 -1 10 4 10 6 0 11 -4 11 -10z m-210 -10 c0 -5 -4
-10 -9 -10 -6 0 -13 5 -16 10 -3 6 1 10 9 10 9 0 16 -4 16 -10z m230 -37 c0
-5 -5 -15 -10 -23 -8 -12 -10 -11 -10 8 0 12 5 22 10 22 6 0 10 -3 10 -7z
m-105 -13 c3 -5 1 -10 -4 -10 -6 0 -11 5 -11 10 0 6 2 10 4 10 3 0 8 -4 11
-10z m45 0 c0 -5 -5 -10 -11 -10 -5 0 -7 5 -4 10 3 6 8 10 11 10 2 0 4 -4 4
-10z m135 -50 c3 -5 -1 -10 -10 -10 -9 0 -13 5 -10 10 3 6 8 10 10 10 2 0 7
-4 10 -10z m642 -118 c8 -5 9 -12 2 -22 -8 -11 -12 -12 -16 -2 -2 6 -11 12
-19 12 -9 0 -12 5 -9 10 7 12 25 13 42 2z m-1063 -40 c-6 -4 -14 -14 -17 -22
-4 -10 -6 -8 -6 8 -1 15 5 22 17 22 10 0 13 -3 6 -8z m286 -563 c0 -11 -71
-16 -77 -6 -3 6 -1 7 5 3 6 -3 13 -3 15 1 6 10 57 11 57 2z m89 -14 c2 -14 -1
-16 -15 -11 -10 4 -21 1 -25 -6 -6 -9 -11 -9 -22 0 -7 7 -17 9 -21 5 -4 -4 -4
0 0 10 3 9 10 14 15 11 5 -3 9 -1 9 5 0 18 55 5 59 -14z m11 -55 c12 -8 11
-10 -5 -9 -11 1 -33 5 -50 9 l-30 8 35 1 c19 0 42 -4 50 -9z m-833 -597 c-9
-9 -20 -13 -24 -9 -4 4 -1 11 7 16 25 16 35 11 17 -7z m62 -165 c-3 -27 2 -38
16 -38 8 0 15 -4 15 -10 0 -5 -4 -10 -9 -10 -5 0 -16 -2 -23 -5 -10 -4 -14 3
-13 27 1 18 3 36 3 41 3 12 13 8 11 -5z m75 -22 c-3 -9 -11 -16 -18 -16 -19 0
-41 18 -33 27 5 4 12 1 16 -6 7 -10 11 -10 22 2 17 18 22 16 13 -7z m-144 -21
c0 -19 -5 -35 -11 -35 -5 0 -8 4 -5 9 4 5 2 20 -3 33 -8 19 -10 20 -10 4 -1
-11 -4 -17 -7 -13 -11 10 4 37 21 37 11 0 15 -10 15 -35z m-33 -47 c-3 -8 -6
-5 -6 6 -1 11 2 17 5 13 3 -3 4 -12 1 -19z m98 -8 c3 -5 -1 -10 -9 -10 -9 0
-16 5 -16 10 0 6 4 10 9 10 6 0 13 -4 16 -10z m772 -12 c-3 -8 -6 -5 -6 6 -1
11 2 17 5 13 3 -3 4 -12 1 -19z m-592 -33 c0 -14 -3 -25 -7 -25 -10 0 -10 34
-1 43 3 4 7 7 7 7 1 0 1 -11 1 -25z m32 0 c0 -8 -4 -12 -9 -9 -4 3 -8 9 -8 15
0 5 4 9 8 9 5 0 9 -7 9 -15z m97 -11 c9 -23 7 -44 -3 -44 -5 0 -11 10 -14 22
-4 12 -9 19 -12 16 -4 -3 -2 -16 5 -27 9 -18 7 -22 -15 -31 -34 -13 -45 -12
-22 1 9 5 17 15 17 21 0 9 -3 9 -12 0 -17 -17 -29 -15 -22 3 4 8 11 15 18 15
6 0 17 9 24 20 15 24 28 26 36 4z m-64 -4 c0 -5 -4 -10 -10 -10 -5 0 -10 5
-10 10 0 6 5 10 10 10 6 0 10 -4 10 -10z m-30 -30 c0 -5 -5 -10 -11 -10 -5 0
-7 5 -4 10 3 6 8 10 11 10 2 0 4 -4 4 -10z m164 -6 c3 -8 2 -12 -4 -9 -6 3
-10 10 -10 16 0 14 7 11 14 -7z m-434 -19 c0 -2 -7 -5 -15 -9 -9 -3 -15 0 -15
9 0 9 6 12 15 9 8 -4 15 -7 15 -9z m40 -5 c0 -5 -4 -10 -10 -10 -5 0 -10 5
-10 10 0 6 5 10 10 10 6 0 10 -4 10 -10z m146 -2 c4 -7 4 -10 -1 -6 -4 4 -14
3 -22 -3 -8 -8 -13 -8 -13 -1 0 6 6 13 13 15 6 3 13 6 14 6 1 1 5 -5 9 -11z
m67 -8 c-3 -11 -7 -20 -9 -20 -2 0 -4 9 -4 20 0 11 4 20 9 20 5 0 7 -9 4 -20z
m-57 -55 c9 -8 11 -15 6 -15 -5 0 -15 7 -22 15 -7 8 -9 15 -6 15 4 0 14 -7 22
-15z m-156 -9 c0 -8 -7 -16 -15 -20 -13 -4 -14 -2 -5 14 13 23 20 26 20 6z
m140 -37 c0 -4 -7 -9 -15 -13 -9 -3 -15 0 -15 8 0 7 7 13 15 13 8 0 15 -4 15
-8z m60 7 c0 -3 -4 -8 -10 -11 -5 -3 -10 -1 -10 4 0 6 5 11 10 11 6 0 10 -2
10 -4z m-270 -20 c0 -3 -4 -8 -10 -11 -5 -3 -10 -1 -10 4 0 6 5 11 10 11 6 0
10 -2 10 -4z"/>
<path d="M1128 2123 c-10 -2 -18 -8 -18 -13 0 -12 33 -5 38 8 2 7 2 11 0 11
-1 -1 -11 -3 -20 -6z"/>
<path d="M975 1910 c-3 -5 -1 -10 4 -10 6 0 11 5 11 10 0 6 -2 10 -4 10 -3 0
-8 -4 -11 -10z"/>
<path d="M1070 1892 c0 -20 5 -22 35 -20 40 2 48 16 9 16 -15 0 -30 6 -35 13
-6 10 -9 8 -9 -9z"/>
<path d="M640 2230 c6 -11 16 -20 22 -20 6 0 3 9 -7 20 -10 11 -20 20 -22 20
-2 0 1 -9 7 -20z"/>
<path d="M1635 2240 c3 -5 8 -10 11 -10 2 0 4 5 4 10 0 6 -5 10 -11 10 -5 0
-7 -4 -4 -10z"/>
<path d="M790 2219 c0 -5 5 -7 10 -4 6 3 10 8 10 11 0 2 -4 4 -10 4 -5 0 -10
-5 -10 -11z"/>
<path d="M1380 2221 c0 -5 7 -11 14 -14 10 -4 13 -1 9 9 -6 15 -23 19 -23 5z"/>
<path d="M1490 2221 c0 -6 5 -13 10 -16 6 -3 10 1 10 9 0 9 -4 16 -10 16 -5 0
-10 -4 -10 -9z"/>
<path d="M723 2213 c-15 -6 -17 -43 -3 -43 6 0 9 5 8 12 -2 7 3 12 11 13 8 0
16 6 19 13 4 12 -12 15 -35 5z"/>
<path d="M680 2184 c0 -8 5 -12 10 -9 6 3 10 10 10 16 0 5 -4 9 -10 9 -5 0
-10 -7 -10 -16z"/>
<path d="M67 2173 c-11 -11 -8 -20 7 -20 8 0 12 6 9 14 -6 15 -7 15 -16 6z"/>
<path d="M186 2155 c4 -8 8 -15 10 -15 2 0 4 7 4 15 0 8 -4 15 -10 15 -5 0 -7
-7 -4 -15z"/>
<path d="M155 2150 c3 -5 8 -10 11 -10 2 0 4 5 4 10 0 6 -5 10 -11 10 -5 0 -7
-4 -4 -10z"/>
<path d="M100 2130 c0 -5 5 -10 11 -10 5 0 7 5 4 10 -3 6 -8 10 -11 10 -2 0
-4 -4 -4 -10z"/>
<path d="M407 2126 c-4 -10 -1 -13 8 -9 8 3 12 9 9 14 -7 12 -11 11 -17 -5z"/>
<path d="M151 2114 c0 -11 3 -14 6 -6 3 7 2 16 -1 19 -3 4 -6 -2 -5 -13z"/>
<path d="M31 2074 c0 -11 3 -14 6 -6 3 7 2 16 -1 19 -3 4 -6 -2 -5 -13z"/>
<path d="M382 2070 c-5 -14 -7 -27 -3 -30 3 -3 6 -12 6 -20 0 -9 7 -14 17 -12
12 2 16 -2 12 -12 -3 -8 -1 -17 5 -21 7 -4 11 5 11 24 0 20 -5 31 -14 31 -16
0 -29 27 -16 32 6 2 6 9 0 18 -7 12 -11 10 -18 -10z"/>
<path d="M470 2070 c0 -11 2 -20 4 -20 2 0 6 9 9 20 3 11 1 20 -4 20 -5 0 -9
-9 -9 -20z"/>
<path d="M198 2072 c-10 -2 -18 -8 -18 -13 0 -11 11 -11 30 1 18 11 11 18 -12
12z"/>
<path d="M1 2054 c0 -11 3 -14 6 -6 3 7 2 16 -1 19 -3 4 -6 -2 -5 -13z"/>
<path d="M430 2061 c0 -5 7 -11 15 -15 8 -3 15 -1 15 3 0 5 -7 11 -15 15 -8 3
-15 1 -15 -3z"/>
<path d="M120 2049 c0 -5 5 -7 10 -4 6 3 10 8 10 11 0 2 -4 4 -10 4 -5 0 -10
-5 -10 -11z"/>
<path d="M150 2035 c0 -8 -5 -15 -11 -15 -5 0 -7 -4 -4 -10 11 -17 21 -11 23
15 1 14 0 25 -3 25 -3 0 -5 -7 -5 -15z"/>
<path d="M510 2028 c0 -17 -3 -19 -9 -10 -7 11 -9 11 -14 -2 -4 -9 -12 -16
-20 -16 -7 0 -19 -15 -27 -34 -9 -24 -18 -33 -29 -29 -14 4 -14 3 0 -6 10 -6
33 -13 52 -15 34 -5 35 -4 20 14 -9 10 -20 17 -25 14 -4 -3 -8 -1 -8 4 0 15
33 24 40 11 5 -7 10 -7 13 -2 9 15 20 93 13 93 -3 0 -6 -10 -6 -22z"/>
<path d="M30 2026 c0 -9 5 -16 10 -16 6 0 10 4 10 9 0 6 -4 13 -10 16 -5 3
-10 -1 -10 -9z"/>
<path d="M20 1992 c0 -12 19 -26 26 -19 2 2 -2 10 -11 17 -9 8 -15 8 -15 2z"/>
<path d="M290 1939 c0 -7 -11 -9 -27 -5 -16 3 -22 3 -15 0 6 -3 12 -12 12 -19
0 -17 31 -28 44 -15 7 7 6 10 -3 10 -8 0 -10 7 -6 20 3 11 4 20 1 20 -3 0 -6
-5 -6 -11z"/>
<path d="M4 1915 c-3 -8 -4 -20 -2 -27 3 -7 7 -1 10 15 6 29 1 36 -8 12z"/>
<path d="M160 1920 c0 -19 37 -43 45 -30 3 6 -1 10 -9 10 -8 0 -20 8 -25 18
-8 13 -10 14 -11 2z"/>
<path d="M1560 1915 c0 -8 2 -15 4 -15 2 0 6 7 10 15 3 8 1 15 -4 15 -6 0 -10
-7 -10 -15z"/>
<path d="M135 1911 c-3 -5 -1 -12 5 -16 5 -3 10 1 10 9 0 18 -6 21 -15 7z"/>
<path d="M1730 1906 c0 -9 7 -16 16 -16 9 0 14 5 12 12 -6 18 -28 21 -28 4z"/>
<path d="M230 1880 c0 -5 5 -10 10 -10 6 0 10 5 10 10 0 6 -4 10 -10 10 -5 0
-10 -4 -10 -10z"/>
<path d="M335 1880 c3 -5 8 -10 11 -10 2 0 4 5 4 10 0 6 -5 10 -11 10 -5 0 -7
-4 -4 -10z"/>
<path d="M1860 1863 c0 -15 -75 -90 -97 -97 -21 -7 -55 -64 -47 -78 3 -4 -13
-6 -34 -4 -47 5 -73 -7 -47 -21 15 -9 12 -13 -21 -29 -21 -10 -39 -23 -41 -29
-3 -11 87 -46 124 -49 25 -1 44 -16 21 -16 -21 0 -32 -31 -16 -42 10 -8 10
-11 1 -15 -9 -3 -5 -15 12 -41 25 -37 26 -54 2 -34 -18 15 -29 4 -17 -18 5
-10 7 -20 4 -23 -3 -3 3 -4 13 -3 10 0 18 -6 18 -14 0 -8 -5 -14 -12 -13 -18
4 -26 -69 -18 -175 6 -85 11 -138 14 -151 1 -2 7 1 14 8 10 8 17 7 26 -2 10
-10 12 -6 11 18 -3 46 -2 50 25 79 20 22 33 26 76 26 29 0 49 3 46 7 -4 3 0
11 8 17 18 14 25 86 14 136 -14 61 -18 162 -8 188 5 14 12 41 15 61 3 20 7 38
9 40 2 1 -1 14 -6 28 -6 17 -6 30 2 39 9 11 7 15 -7 20 -35 11 -64 27 -64 36
0 4 4 8 9 8 6 0 10 8 10 18 0 91 3 110 17 105 8 -3 14 0 14 6 0 6 -9 11 -19
11 -11 0 -26 3 -35 6 -9 3 -16 2 -16 -3z"/>
<path d="M190 1850 c0 -5 5 -10 10 -10 6 0 10 5 10 10 0 6 -4 10 -10 10 -5 0
-10 -4 -10 -10z"/>
<path d="M300 1856 c0 -2 7 -7 16 -10 8 -3 12 -2 9 4 -6 10 -25 14 -25 6z"/>
<path d="M70 1825 c0 -5 5 -17 10 -25 5 -8 10 -10 10 -5 0 6 -5 17 -10 25 -5
8 -10 11 -10 5z"/>
<path d="M20 1816 c0 -2 7 -9 15 -16 9 -7 15 -8 15 -2 0 5 -7 12 -15 16 -8 3
-15 4 -15 2z"/>
<path d="M311 1793 c-1 -7 -7 -13 -15 -13 -21 0 -31 -21 -15 -30 15 -10 43 24
36 43 -4 9 -6 9 -6 0z"/>
<path d="M360 1789 c0 -5 5 -7 10 -4 6 3 10 8 10 11 0 2 -4 4 -10 4 -5 0 -10
-5 -10 -11z"/>
<path d="M4 1750 c0 -17 4 -29 10 -27 15 5 15 57 1 57 -6 0 -11 -14 -11 -30z"/>
<path d="M41 1764 c0 -11 3 -14 6 -6 3 7 2 16 -1 19 -3 4 -6 -2 -5 -13z"/>
<path d="M330 1744 c0 -8 5 -12 10 -9 6 3 10 10 10 16 0 5 -4 9 -10 9 -5 0
-10 -7 -10 -16z"/>
<path d="M75 1739 c-11 -16 -1 -19 13 -3 7 8 8 14 3 14 -5 0 -13 -5 -16 -11z"/>
<path d="M1600 1731 c0 -5 9 -7 20 -4 11 3 20 7 20 9 0 2 -9 4 -20 4 -11 0
-20 -4 -20 -9z"/>
<path d="M145 1720 c-3 -5 -1 -10 4 -10 6 0 11 5 11 10 0 6 -2 10 -4 10 -3 0
-8 -4 -11 -10z"/>
<path d="M230 1702 c0 -13 4 -21 9 -18 5 4 11 0 14 -6 2 -7 7 -10 11 -7 4 3
-2 17 -13 30 l-20 24 -1 -23z"/>
<path d="M352 1695 c0 -16 2 -22 5 -12 2 9 2 23 0 30 -3 6 -5 -1 -5 -18z"/>
<path d="M205 1700 c-3 -5 -1 -10 4 -10 6 0 11 5 11 10 0 6 -2 10 -4 10 -3 0
-8 -4 -11 -10z"/>
<path d="M310 1674 c-12 -32 -13 -47 -1 -40 8 6 21 66 14 66 -2 0 -8 -12 -13
-26z"/>
<path d="M1550 1690 c0 -5 7 -10 15 -10 8 0 15 5 15 10 0 6 -7 10 -15 10 -8 0
-15 -4 -15 -10z"/>
<path d="M1498 1683 c7 -3 16 -2 19 1 4 3 -2 6 -13 5 -11 0 -14 -3 -6 -6z"/>
<path d="M35 1670 c-3 -5 -1 -10 4 -10 6 0 11 5 11 10 0 6 -2 10 -4 10 -3 0
-8 -4 -11 -10z"/>
<path d="M100 1605 c0 -8 5 -15 10 -15 6 0 10 7 10 15 0 8 -4 15 -10 15 -5 0
-10 -7 -10 -15z"/>
<path d="M200 1560 c0 -5 5 -10 10 -10 6 0 10 5 10 10 0 6 -4 10 -10 10 -5 0
-10 -4 -10 -10z"/>
<path d="M231 1531 c0 -14 -8 -33 -18 -43 -15 -17 -15 -18 0 -18 18 0 32 38
24 67 -4 13 -5 12 -6 -6z"/>
<path d="M290 1540 c0 -5 5 -10 11 -10 5 0 7 5 4 10 -3 6 -8 10 -11 10 -2 0
-4 -4 -4 -10z"/>
<path d="M95 1530 c-3 -6 1 -7 9 -4 18 7 21 14 7 14 -6 0 -13 -4 -16 -10z"/>
<path d="M130 1525 c0 -8 2 -15 4 -15 2 0 6 7 10 15 3 8 1 15 -4 15 -6 0 -10
-7 -10 -15z"/>
<path d="M178 1533 c-10 -2 -18 -9 -18 -14 0 -6 7 -6 19 0 10 6 22 7 26 3 5
-4 5 -1 1 6 -4 6 -8 11 -9 11 -1 -1 -10 -3 -19 -6z"/>
<path d="M315 1490 c3 -5 11 -10 16 -10 6 0 7 5 4 10 -3 6 -11 10 -16 10 -6 0
-7 -4 -4 -10z"/>
<path d="M129 1465 c-1 -5 -1 -13 0 -17 0 -5 -6 -8 -14 -8 -8 0 -15 -8 -15
-18 0 -10 -5 -23 -11 -29 -7 -7 -6 -12 6 -17 9 -3 13 -2 10 4 -3 5 6 21 20 34
21 20 25 28 16 43 -6 10 -11 14 -12 8z"/>
<path d="M160 1450 c0 -5 4 -10 9 -10 6 0 13 5 16 10 3 6 -1 10 -9 10 -9 0
-16 -4 -16 -10z"/>
<path d="M195 1430 c-3 -6 1 -7 9 -4 18 7 21 14 7 14 -6 0 -13 -4 -16 -10z"/>
<path d="M240 1425 c0 -8 2 -15 4 -15 2 0 11 -3 20 -6 23 -9 20 13 -4 26 -16
9 -20 8 -20 -5z"/>
<path d="M360 1421 c0 -5 7 -14 15 -21 16 -14 18 -10 9 14 -6 17 -24 22 -24 7z"/>
<path d="M275 1360 c3 -5 8 -10 11 -10 2 0 4 5 4 10 0 6 -5 10 -11 10 -5 0 -7
-4 -4 -10z"/>
<path d="M330 1350 c0 -5 5 -10 10 -10 6 0 10 5 10 10 0 6 -4 10 -10 10 -5 0
-10 -4 -10 -10z"/>
<path d="M90 1334 c0 -13 -3 -14 -15 -4 -8 6 -20 10 -27 7 -8 -4 -7 -6 5 -6 9
-1 17 -5 17 -10 0 -16 53 -20 67 -5 12 12 11 15 -12 24 -34 13 -35 13 -35 -6z"/>
<path d="M291 1314 c0 -11 3 -14 6 -6 3 7 2 16 -1 19 -3 4 -6 -2 -5 -13z"/>
<path d="M38 1303 c7 -3 16 -2 19 1 4 3 -2 6 -13 5 -11 0 -14 -3 -6 -6z"/>
<path d="M60 1269 c0 -5 5 -7 10 -4 6 3 10 8 10 11 0 2 -4 4 -10 4 -5 0 -10
-5 -10 -11z"/>
<path d="M95 1250 c3 -5 8 -10 11 -10 2 0 4 5 4 10 0 6 -5 10 -11 10 -5 0 -7
-4 -4 -10z"/>
<path d="M21 1241 c-10 -7 -9 -9 2 -14 10 -4 13 -13 10 -26 -3 -12 -1 -21 3
-22 5 0 16 -2 25 -4 12 -2 17 4 17 23 0 24 -1 25 -14 7 -13 -18 -14 -17 -14 7
0 30 -10 40 -29 29z"/>
<path d="M1220 1231 c0 -14 22 -19 58 -14 48 8 39 23 -13 23 -25 0 -45 -4 -45
-9z"/>
<path d="M6 1201 c-4 -7 -5 -15 -2 -18 9 -9 19 4 14 18 -4 11 -6 11 -12 0z"/>
<path d="M90 1190 c0 -5 5 -10 11 -10 5 0 7 5 4 10 -3 6 -8 10 -11 10 -2 0 -4
-4 -4 -10z"/>
<path d="M146 1171 c-19 -7 -19 -8 2 -13 15 -4 22 -2 22 8 0 8 -1 14 -2 13 -2
0 -12 -4 -22 -8z"/>
<path d="M1250 1157 c-20 -10 -24 -19 -22 -42 5 -39 8 -41 30 -22 21 19 58 23
64 7 2 -6 17 -8 36 -4 40 8 37 24 -9 40 -19 7 -26 13 -16 13 10 1 15 6 12 11
-9 14 -65 12 -95 -3z"/>
<path d="M37 1146 c-6 -14 0 -26 14 -26 8 0 6 26 -3 35 -3 3 -8 -1 -11 -9z"/>
<path d="M1390 1146 c0 -2 7 -6 15 -10 8 -3 15 -1 15 4 0 6 -7 10 -15 10 -8 0
-15 -2 -15 -4z"/>
<path d="M87 1116 c-4 -10 -1 -13 8 -9 8 3 12 9 9 14 -7 12 -11 11 -17 -5z"/>
<path d="M1449 1110 c13 -11 28 -20 35 -20 6 1 0 10 -13 20 -13 11 -28 20 -35
20 -6 -1 0 -10 13 -20z"/>
<path d="M1856 1063 c20 -81 21 -81 29 -41 9 44 2 68 -20 68 -12 0 -14 -6 -9
-27z"/>
<path d="M138 1023 c7 -3 16 -2 19 1 4 3 -2 6 -13 5 -11 0 -14 -3 -6 -6z"/>
<path d="M109 997 c6 -8 7 -18 3 -22 -4 -5 -1 -5 6 -1 18 10 15 36 -4 36 -13
0 -14 -3 -5 -13z"/>
<path d="M1760 965 c0 -10 7 -15 18 -13 21 4 19 22 -2 26 -10 2 -16 -3 -16
-13z"/>
<path d="M20 945 c7 -8 17 -15 22 -15 5 0 3 7 -6 15 -8 8 -18 15 -22 15 -3 0
-1 -7 6 -15z"/>
<path d="M140 950 c-8 -5 -11 -12 -8 -16 4 -3 14 1 23 10 18 17 9 21 -15 6z"/>
<path d="M167 933 c-3 -5 0 -19 8 -29 15 -20 18 -11 6 20 -4 11 -10 15 -14 9z"/>
<path d="M86 911 c-4 -6 -4 -11 1 -11 4 0 18 -3 31 -6 14 -4 22 -2 22 6 0 7
-6 10 -14 7 -7 -3 -18 -1 -24 5 -6 6 -12 6 -16 -1z"/>
<path d="M0 887 c0 -15 30 -19 45 -7 12 10 15 9 15 -9 0 -11 4 -21 9 -21 4 0
6 10 4 23 -4 19 -11 23 -39 23 -19 -1 -34 -5 -34 -9z"/>
<path d="M220 890 c-13 -8 -12 -10 3 -10 9 0 17 5 17 10 0 12 -1 12 -20 0z"/>
<path d="M85 880 c-3 -5 1 -10 9 -10 9 0 16 5 16 10 0 6 -4 10 -9 10 -6 0 -13
-4 -16 -10z"/>
<path d="M172 844 c-7 -8 -10 -19 -6 -26 5 -7 10 -3 16 12 10 28 7 33 -10 14z"/>
<path d="M125 830 c-3 -5 1 -10 9 -10 9 0 16 5 16 10 0 6 -4 10 -9 10 -6 0
-13 -4 -16 -10z"/>
<path d="M951 808 c-14 -40 -14 -68 2 -101 12 -28 31 -35 42 -17 4 6 10 8 15
5 13 -8 40 6 40 20 0 7 5 15 11 17 5 2 7 11 3 21 -4 11 -13 16 -21 12 -10 -3
-13 -1 -10 9 5 12 -18 35 -60 59 -7 4 -15 -5 -22 -25z"/>
<path d="M5 819 c-10 -15 3 -25 16 -12 7 7 7 13 1 17 -6 3 -14 1 -17 -5z"/>
<path d="M27 792 c-9 -2 -15 -7 -12 -12 3 -4 15 -6 27 -2 14 3 19 2 14 -6 -4
-7 -4 -12 -1 -12 7 0 38 29 33 31 -9 4 -45 5 -61 1z"/>
<path d="M161 779 c-13 -5 -22 -12 -19 -15 8 -8 58 7 58 17 0 11 -8 11 -39 -2z"/>
<path d="M1075 769 c-9 -14 -7 -15 38 -23 38 -7 46 1 25 22 -15 15 -55 16 -63
1z"/>
<path d="M77 746 c-3 -8 -2 -18 3 -21 13 -8 20 9 11 24 -6 10 -10 9 -14 -3z"/>
<path d="M4 743 c10 -11 56 -11 56 -1 0 4 -14 8 -32 8 -17 0 -28 -3 -24 -7z"/>
<path d="M150 713 c-7 -16 -12 -32 -11 -37 1 -5 -4 -13 -11 -17 -10 -7 -10
-11 0 -21 9 -9 12 -9 12 5 0 10 8 17 19 17 11 0 23 5 26 11 4 6 1 10 -6 8 -27
-3 -40 1 -34 11 4 6 10 8 15 5 4 -3 11 2 14 11 16 41 -4 47 -24 7z"/>
<path d="M2 683 c-3 -43 12 -36 23 10 5 20 3 27 -7 27 -9 0 -15 -13 -16 -37z"/>
<path d="M86 657 c3 -10 9 -15 12 -12 3 3 0 11 -7 18 -10 9 -11 8 -5 -6z"/>
<path d="M0 609 c0 -5 5 -7 10 -4 5 3 10 8 10 11 0 2 -4 4 -10 4 -5 0 -10 -5
-10 -11z"/>
<path d="M151 588 c-1 -9 -7 -18 -13 -21 -7 -2 -13 -20 -13 -39 0 -24 4 -34
12 -31 8 3 10 16 6 34 -3 16 -2 29 3 30 42 3 72 19 37 19 -12 0 -24 6 -26 13
-4 7 -6 6 -6 -5z"/>
<path d="M155 540 c-3 -5 -1 -10 4 -10 6 0 11 5 11 10 0 6 -2 10 -4 10 -3 0
-8 -4 -11 -10z"/>
<path d="M192 530 c-11 -17 -10 -20 7 -20 14 0 18 5 14 20 -3 11 -6 20 -7 20
-1 0 -7 -9 -14 -20z"/>
<path d="M190 466 c0 -9 7 -16 16 -16 17 0 14 22 -4 28 -7 2 -12 -3 -12 -12z"/>
<path d="M295 460 c-3 -5 -1 -10 4 -10 6 0 11 5 11 10 0 6 -2 10 -4 10 -3 0
-8 -4 -11 -10z"/>
<path d="M140 450 c0 -5 -7 -10 -17 -10 -21 0 -8 -13 17 -17 14 -2 20 3 20 17
0 11 -4 20 -10 20 -5 0 -10 -4 -10 -10z"/>
<path d="M230 437 c0 -9 4 -18 9 -21 5 -4 8 1 7 9 -3 21 -16 31 -16 12z"/>
<path d="M860 401 c0 -6 5 -13 10 -16 6 -3 10 1 10 9 0 9 -4 16 -10 16 -5 0
-10 -4 -10 -9z"/>
<path d="M342 320 c-7 -12 -8 -20 -2 -20 5 0 10 5 10 11 0 5 5 7 10 4 6 -3 10
1 10 9 0 22 -13 20 -28 -4z"/>
<path d="M356 282 c-3 -6 -1 -14 5 -17 15 -10 25 3 12 16 -7 7 -13 7 -17 1z"/>
<path d="M921 254 c0 -11 3 -14 6 -6 3 7 2 16 -1 19 -3 4 -6 -2 -5 -13z"/>
<path d="M945 260 c3 -5 8 -10 11 -10 2 0 4 5 4 10 0 6 -5 10 -11 10 -5 0 -7
-4 -4 -10z"/>
<path d="M546 237 c3 -10 9 -15 12 -12 3 3 0 11 -7 18 -10 9 -11 8 -5 -6z"/>
<path d="M510 220 c-9 -6 -10 -10 -3 -10 6 0 15 5 18 10 8 12 4 12 -15 0z"/>
<path d="M1531 154 c0 -11 3 -14 6 -6 3 7 2 16 -1 19 -3 4 -6 -2 -5 -13z"/>
<path d="M407 143 c-4 -3 -7 -11 -7 -17 0 -6 5 -5 12 2 6 6 9 14 7 17 -3 3 -9
2 -12 -2z"/>
<path d="M710 130 c0 -5 5 -10 11 -10 5 0 7 5 4 10 -3 6 -8 10 -11 10 -2 0 -4
-4 -4 -10z"/>
<path d="M917 69 c4 -13 8 -18 11 -10 2 7 -1 18 -6 23 -8 8 -9 4 -5 -13z"/>
<path d="M1586 65 c-3 -8 0 -26 6 -40 10 -21 18 -25 57 -25 31 0 41 3 32 9 -8
5 -21 7 -29 3 -10 -3 -13 -1 -8 6 4 6 -2 17 -14 24 -11 7 -20 18 -20 25 0 18
-17 16 -24 -2z"/>
<path d="M1020 50 c0 -11 5 -20 11 -20 5 0 7 5 3 11 -3 6 0 15 7 20 11 7 10 9
-3 9 -11 0 -18 -8 -18 -20z"/>
<path d="M1075 40 c4 -6 11 -8 16 -5 14 9 11 15 -7 15 -8 0 -12 -5 -9 -10z"/>
<path d="M980 9 c0 -5 5 -7 10 -4 6 3 10 8 10 11 0 2 -4 4 -10 4 -5 0 -10 -5
-10 -11z"/>
</g>
</svg>
